 Dabangg(2012) - Dual Audio [HINDI-TELUGU] - 720P Blu Ray Rip - 1 GB - 

  DownloadMirchi.com Exclusive



[IMG]http://www.shotpix.com/images/21760579463909236438.png[/IMG]
[code]
Format : Matroska
File size : 1.02 GiB
Duration : 2h 0mn
Overall bit rate : 1 205 Kbps

Video
ID : 1
Format : AVC
Format/Info : Advanced Video Codec
Format profile : High@L5.1
Duration : 2h 0mn
Bit rate mode : Variable
Bit rate : 893 Kbps
Maximum bit rate : 40.0 Mbps
Width : 1 280 pixels
Height : 544 pixels
Display aspect ratio : 2.35:1
Frame rate : 25.000 fps
Bits/(Pixel*Frame) : 0.051
Stream size : 773 MiB (74%)

Audio #1
ID : 2
Format : AC-3
Format/Info : Audio Coding 3
Codec ID : A_AC3
Duration : 2h 0mn
Bit rate : 192 Kbps
Channel(s) : 6 channels
Channel positions : Front: L C R, Side: L R, LFE
Sampling rate : 48.0 KHz
Bit depth : 16 bits
Stream size : 166 MiB (16%)
Title : HINDI
Language : Hindi

Audio #2
ID : 3
Format : MPEG Audio
Format version : Version 1
Format profile : Layer 3
Mode : Joint stereo
Codec ID/Hint : MP3
Duration : 2h 0mn
Bit rate : 96.0 Kbps
Channel(s) : 2 channels
Sampling rate : 44.1 KHz
Stream size : 83.1 MiB (8%)
Title : TELUGU
Language : Telugu
[/code][IMG]http://www.shotpix.com/images/67094770715456024900.png[/IMG]
[IMG]http://www.shotpix.com/images/40237136813889063167.png[/IMG]
[IMG]http://www.shotpix.com/images/57949821057425759828.png[/IMG]
[IMG]http://www.shotpix.com/images/66977543174624967166.png[/IMG]
[IMG]http://www.shotpix.com/images/75056574819417731909.png[/IMG]
[IMG]http://www.shotpix.com/images/70065748959023069047.png[/IMG]
[IMG]http://www.shotpix.com/images/27387521447992929975.png[/IMG]
[IMG]http://www.shotpix.com/images/16987343754780143554.png[/IMG]
[IMG]http://www.shotpix.com/images/49831493991449631149.png[/IMG]
[IMG]http://www.shotpix.com/images/53882906015943456982.png[/IMG]

[FONT=Arial Black][SIZE=4][COLOR=Magenta]PLEASE SEED ATLEAST 1:1 RATIO[/COLOR][/SIZE][/FONT]

